<?xml version="1.0" encoding="UTF-8" standalone="no"?>
<!DOCTYPE svg PUBLIC "-//W3C//DTD SVG 1.1//EN" "http://www.w3.org/Graphics/SVG/1.1/DTD/svg11.dtd">
<svg version="1.1" xmlns="http://www.w3.org/2000/svg" xmlns:xlink="http://www.w3.org/1999/xlink" preserveAspectRatio="xMidYMid meet" viewBox="0 0 640 220" width="640" height="220"><defs><path d="M423.59 28.3C422.51 30 421.52 31.76 420.53 33.51C420.25 33.99 420.09 34.55 419.79 35.31C420.32 35.19 420.65 35.18 420.93 35.05C422.92 34.09 424.54 32.65 426.06 31.08C426.99 30.12 427.89 29.11 428.81 28.13C430.89 25.92 431.76 25.42 435.1 24.57C434.86 26.03 433.98 27.03 433.04 27.94C430.76 30.14 428.91 32.7 427.08 35.27C424.68 38.64 422.39 42.09 419.93 45.42C415.34 51.6 410.89 57.91 405.96 63.81C401.96 68.59 398.39 73.63 394.82 78.7C393.63 80.39 392.24 81.93 391.02 83.6C389.18 86.1 387.45 88.67 385.61 91.17C384.5 92.67 383.28 94.07 382.13 95.53C381.51 96.3 380.83 97.02 380.34 97.86C378.05 101.82 375.18 105.36 372.56 109.08C369.79 113.01 367.17 117.04 364.42 120.99C361.88 124.64 359.22 128.21 356.67 131.85C355.19 133.96 353.81 136.15 352.39 138.31C352.04 138.83 351.73 139.37 351.39 139.88C347.89 145.01 344.37 150.12 340.91 155.27C339.81 156.89 338.78 158.58 337.87 160.31C335.12 165.49 331.95 170.38 328.4 175.04C326.59 177.42 324.97 179.96 323.2 182.38C322.45 183.43 322.33 184.46 322.89 185.57C323.29 186.36 323.71 187.13 324.14 187.89C325.16 189.69 326.11 191.52 326.51 193.68C324.88 194.26 323.19 194.58 321.65 194.14C320.12 193.71 318.76 192.66 317.34 191.88C316.54 193.04 316.9 194.05 317.54 195.17C317.15 194.93 316.75 194.68 316.2 194.34C315.84 194.8 315.47 195.2 315.17 195.66C312.44 199.87 309.71 204.08 306.98 208.29C306.03 209.76 305.13 211.28 304.09 212.7C303.24 213.86 302.3 214.97 301.25 215.95C300.46 216.69 299.86 216.42 299.25 215.55C298.11 213.93 298.21 212.15 298.4 210.44C298.74 210.07 299.15 209.8 299.31 209.43C301.52 204.43 304.72 200.03 307.77 195.53C309.48 193.01 311.04 190.39 312.7 187.83C313.32 186.88 313.24 185.99 313.03 184.9C312.63 182.83 311.17 181.55 309.85 179.78C309.59 180.83 310.08 181.46 310.26 182.14C310.46 182.88 310.71 183.6 310.74 184.43C310.5 184.13 310.23 183.85 310.01 183.54C308.06 180.79 306.41 177.88 304.99 174.82C302.65 169.8 300.38 164.75 297.86 159.83C292.04 148.52 286.22 137.21 280.17 126.02C274.08 114.78 266.27 104.74 257.84 95.16C257.54 94.83 257.21 94.54 256.83 94.17C256.37 95.1 256.8 95.67 257.22 96.26C259.75 99.79 262.28 103.32 264.78 106.87C265.79 108.3 266.74 109.78 267.74 111.28C266.7 112.4 267.09 113.48 267.6 114.61C267.99 115.45 268.33 116.33 268.56 117.22C268.7 117.74 268.74 118.4 268.55 118.88C268.22 119.66 268.43 120.25 268.81 120.91C272.91 127.98 276.97 135.06 281.08 142.12C284.75 148.43 288.26 154.82 291.36 161.43C292.28 163.4 292.96 165.44 293.18 167.69C292.79 167.78 292.44 167.86 292.1 167.95C290.96 168.24 290.08 167.91 289.44 166.9C288.23 164.98 286.95 163.09 285.78 161.14C280.93 153.08 276.11 144.99 271.27 136.92C267.15 130.05 263.09 123.14 258.84 116.34C256.98 113.37 254.84 110.55 252.6 107.84C249.68 104.33 247.16 100.56 244.74 96.7C243.75 95.12 242.73 93.57 241.79 91.96C241.29 91.09 240.61 90.8 239.73 91.11C238.67 91.5 237.52 91.82 236.65 92.48C232.55 95.63 228.22 98.47 224.71 102.35C222.46 104.84 219.95 107.1 217.65 109.55C215.21 112.16 212.9 114.87 210.53 117.54C209.91 118.23 209.23 118.88 208.62 119.58C206.95 121.52 205.03 122.94 202.36 123.18C201.67 123.24 200.95 123.56 200.34 123.92C199.09 124.66 197.91 124.57 196.9 123.65C195.91 122.75 194.91 122.78 193.75 123.12C191.38 123.82 189.31 125.07 187.31 126.46C186.09 127.31 184.96 128.35 183.34 128.52C182.55 127.73 182.46 126.67 182.32 125.68C182.27 125.31 182.59 124.78 182.9 124.49C183.73 123.72 184.57 122.91 185.54 122.34C189.82 119.85 193.57 116.72 197.17 113.35C200.08 110.63 203.2 108.14 206.19 105.51C207.54 104.33 208.83 103.07 209.97 101.3C207.6 101.23 205.42 101.02 203.4 101.9C197 104.7 190.21 105.95 183.41 107.3C177.75 108.43 172.05 108.87 166.35 109.45C158.54 110.25 150.72 111.01 142.88 111.49C135.29 111.95 127.68 112.02 120.08 112.29C113.47 112.53 106.87 112.9 100.29 113.67C95.67 114.21 91.02 114.54 86.4 115C81.15 115.52 75.91 116.05 70.67 116.67C69.68 116.79 68.7 117.27 67.79 117.74C66.62 118.34 65.41 118.73 64.09 118.74C61.56 118.75 59.02 118.7 56.49 118.75C49.56 118.91 42.63 119.12 35.71 119.26C28.62 119.41 21.54 119.59 14.45 119.59C12.25 119.59 10.04 119.11 7.86 118.73C6.53 118.5 5.34 117.82 4.32 116.9C3.82 116.44 3.52 115.96 3.81 115.12C7.9 114.49 12.12 114.1 16.3 112.76C16.3 111.95 16.3 111.14 16.3 110.29C18.06 109.49 19.82 109.1 21.6 108.89C23.86 108.63 26.13 108.53 28.4 108.33C32.47 107.98 36.53 107.58 40.6 107.23C44 106.94 47.4 106.7 50.8 106.41C55.59 106.01 60.39 105.62 65.17 105.16C68.1 104.87 71.01 104.31 73.94 104.13C79.82 103.76 85.71 103.53 91.6 103.3C92.57 103.26 93.56 103.48 94.53 103.61C97.59 104.04 100.62 103.48 103.65 103.18C109.2 102.63 114.76 102.12 120.35 102.03C124.28 101.98 128.2 101.58 132.12 101.33C134.33 101.18 136.55 100.97 138.77 100.85C146.98 100.39 155.19 100.01 163.4 99.52C168.97 99.19 174.54 98.72 180.1 98.31C184.23 98.01 188.36 97.74 192.48 97.39C193.65 97.29 194.8 96.98 196.18 96.73C195.84 96.27 195.67 95.97 195.43 95.75C193.25 93.7 190.69 92.26 187.97 91.08C182.04 88.49 175.92 86.42 169.66 84.79C161.86 82.76 154.09 80.59 146.21 78.92C134.93 76.52 123.86 73.35 112.76 70.28C108.2 69.02 103.85 66.99 99.41 65.31C97.79 64.69 96.62 63.54 95.78 62.07C95.16 60.99 94.63 59.87 94.07 58.78C94.71 57.94 95.56 57.78 96.43 57.61C99.02 57.11 101.6 56.59 104.18 56.07C105.12 55.88 105.89 55.47 106.38 54.55C106.89 53.58 107.75 53.1 108.87 52.93C112.04 52.43 115.19 51.88 118.34 51.29C122.5 50.49 126.63 49.58 130.8 48.82C135.68 47.93 140.56 47.07 145.47 46.37C148.59 45.93 151.76 45.85 154.89 45.55C157.87 45.26 160.85 44.86 163.83 44.55C167.73 44.14 171.64 43.67 175.55 43.39C185.94 42.66 196.34 43.13 206.74 43.14C209.62 43.15 212.51 43.58 215.36 44.06C216.8 44.3 218.15 45.08 219.53 45.65C220.2 45.92 220.34 46.51 220.36 47.17C220.39 47.93 219.8 48.08 219.3 48.32C218 48.94 216.6 48.95 215.2 48.99C213.29 49.04 211.38 49.17 209.47 49.2C207.36 49.24 205.25 49.21 203.07 49.21C202.66 50.25 202.28 51.2 201.92 52.16C201.46 53.36 200.63 53.99 199.31 53.92C198.48 53.87 197.64 53.94 196.83 53.79C191.2 52.75 185.51 52.67 179.83 52.96C173.01 53.3 166.21 53.84 159.41 54.43C153.07 54.98 146.75 55.63 140.44 56.38C136.24 56.88 132.07 57.64 127.93 58.28C127.68 59.24 128.21 59.59 128.79 59.84C130.49 60.58 132.18 61.36 133.93 61.98C138.22 63.5 142.61 64.64 147.07 65.59C151.71 66.57 156.27 67.95 160.87 69.13C170.18 71.52 179.54 73.71 188.78 76.34C195.63 78.29 202.35 80.71 209.07 83.09C213.58 84.69 217.72 87.03 221.35 90.21C221.54 90.38 221.77 90.49 222.13 90.72C223.45 89.49 224.75 88.25 226.1 87.06C227.84 85.52 229.64 84.05 231.39 82.52C234.89 79.45 238.49 76.47 240.62 72.18C241.18 71.04 242.02 70.21 243.16 69.56C245.22 68.38 246.78 66.64 247.78 64.47C248.38 63.15 249.22 62.08 250.45 61.33C251.74 60.54 252.5 59.36 253.2 58.06C253.76 57.03 254.42 55.99 255.27 55.2C261.81 49.08 267.99 42.63 273.51 35.54C275.26 33.3 274.51 33.77 277.39 33.87C278.68 33.91 279.96 34.11 281.24 34.32C282.21 34.48 283.09 34.45 283.77 33.63C283.81 33.59 283.85 33.56 283.89 33.52C286.95 30.36 290.83 28.95 295.05 28.31C296.91 28.02 298.76 27.93 300.56 28.64C300.79 28.73 300.99 28.88 301.3 29.06C300.18 31.21 298.77 33.06 297.15 34.7C292.32 39.6 287.41 44.42 282.54 49.28C280.13 51.69 277.73 54.12 275.33 56.54C274.45 57.42 273.6 58.32 272.72 59.19C268.85 63 264.96 66.79 261.12 70.63C260.11 71.64 259.25 72.8 258.24 73.99C259.77 74.96 261.27 74.94 262.71 74.57C264.15 74.21 265.57 73.66 266.91 73.02C271.01 71.05 274.99 68.83 279.16 67.02C283.76 65.02 288.37 63.06 292.74 60.59C293.46 60.18 294.24 59.87 295.01 59.58C302.61 56.72 309.94 53.21 317.35 49.92C318.16 49.57 318.97 49.22 319.72 48.77C323.27 46.65 327.15 45.43 331.13 44.44C333.28 43.9 335.33 43.02 337.44 42.34C338.81 41.9 340.2 41.5 341.6 41.17C343.66 40.69 345.74 40.28 347.82 39.84C349.52 39.49 351.21 39.48 352.86 40.07C354.21 40.56 355.33 41.34 356 42.77C354.63 44.03 353.09 44.9 351.35 45.47C347.62 46.68 343.89 47.9 340.18 49.2C338.72 49.71 337.31 50.36 335.94 51.07C331.01 53.61 325.99 55.91 320.79 57.81C317.32 59.07 314.05 60.71 310.76 62.34C307.2 64.11 303.59 65.79 299.99 67.5C299.57 67.7 299.15 67.91 298.7 68.02C295.28 68.84 292.32 70.67 289.28 72.32C285.04 74.63 280.63 76.48 275.98 77.81C273.84 78.42 271.72 79.09 269.84 80.34C268.58 81.17 268.48 81.57 269.26 82.85C269.59 83.38 270.02 83.83 270.38 84.33C273.07 88.01 275.76 91.67 278.44 95.35C280.26 97.87 282.22 100.26 284.4 102.49C285.54 103.66 286.4 105.11 287.3 106.49C288.06 107.66 288.66 108.93 289.39 110.12C290.27 111.53 291.29 112.83 292.91 113.86C294.3 113.19 295.8 112.53 297.25 111.76C300.63 109.94 303.68 107.63 306.74 105.32C307.47 104.76 307.61 104.08 307.61 103.29C307.61 102.6 307.82 102.12 308.56 101.9C312.48 100.73 315.8 98.39 319.23 96.3C323.53 93.67 327.27 90.33 331.06 87.03C336.4 82.38 342.02 78.05 347.38 73.42C354.78 67.03 361.93 60.36 368.58 53.18C370.34 51.29 372.29 49.57 374.15 47.78C376.01 45.99 377.89 44.2 379.74 42.41C380.56 41.61 381.39 40.83 382.15 39.98C383.15 38.87 384.23 38.49 385.71 39.06C386.65 39.43 387.72 39.6 388.74 39.62C390.62 39.66 392.07 38.91 393.04 37.15C393.71 35.95 394.68 34.91 395.53 33.81C396.24 32.9 397.1 32.64 398.26 32.97C399.34 33.27 400.48 33.36 401.61 33.56C402.28 32.56 402.88 31.67 403.55 30.66C405.13 31.08 406.71 31.49 408.34 31.91C408.59 31.5 408.81 31.17 409 30.81C410.28 28.48 412.39 27.37 415.01 27.68C415.99 27.79 416.96 27.93 417.93 28.06C420 28.34 421.85 27.85 423.42 26.49C424.28 25.74 425.05 24.9 425.86 24.1C426.07 24.1 426.28 24.1 426.49 24.1C425.52 25.49 424.5 26.86 423.59 28.3ZM321.35 170.14C323.22 166.43 325.67 163.09 327.94 159.64C331.09 154.85 334.13 149.98 337.35 145.23C340.8 140.15 344.43 135.17 347.96 130.14C350.25 126.88 352.52 123.61 354.79 120.34C355.53 119.28 355.92 118.13 355.66 116.49C353.96 118.32 353.34 120.64 351.29 121.77C352.1 119.73 353.03 117.77 354.09 115.89C355.71 113.03 356.72 109.95 357.52 106.78C357.6 106.45 357.58 106.09 357.61 105.55C356.55 105.8 355.62 106.02 354.73 106.22C353.49 104.52 353.48 104.45 351.27 104.5C347.86 104.58 344.46 104.74 341.05 104.91C339.04 105.01 337.02 105.1 335.02 105.34C332.46 105.64 329.92 106.16 327.36 106.46C324.88 106.75 322.67 107.67 320.59 108.96C318.74 110.1 316.93 111.3 315.06 112.4C311.76 114.33 308.45 116.24 305.1 118.08C304.22 118.57 303.17 118.74 302.2 119.08C301.47 119.33 300.69 119.51 300.03 119.89C298.37 120.84 298.26 121.55 299.43 123.01C299.66 123.3 299.93 123.56 300.09 123.87C300.24 124.15 300.27 124.49 300.35 124.83C298.78 125.17 297.34 125.47 295.78 125.8C296.06 126.54 296.22 127.08 296.45 127.59C299.24 133.58 302.04 139.57 304.84 145.56C305.02 145.93 305.26 146.27 305.46 146.64C307.03 149.66 308.74 152.62 310.15 155.72C312.49 160.84 314.63 166.04 316.88 171.21C317.25 172.04 317.72 172.82 318.2 173.72C319.72 172.75 320.66 171.51 321.35 170.14ZM390.07 50.37C388.82 51.37 387.61 52.42 386.48 53.54C385.35 54.67 384.4 55.99 383.24 57.09C376.64 63.36 370.04 69.63 363.36 75.8C360.67 78.29 357.76 80.55 354.97 82.94C350.57 86.7 346.41 90.73 341.64 94.06C339.52 95.53 337.47 97.11 335.39 98.66C334.96 98.98 334.58 99.36 333.99 99.87C334.52 100.02 334.75 100.13 334.98 100.15C336.84 100.27 338.7 100.51 340.56 100.44C346.65 100.23 352.74 99.8 358.84 99.68C360.76 99.65 361.82 98.91 362.8 97.41C366.22 92.17 369.75 87 373.21 81.79C375.41 78.48 377.69 75.2 379.72 71.78C383.86 64.8 387.85 57.74 391.91 50.71C392.1 50.37 392.26 50.02 392.52 49.49C391.46 49.54 390.69 49.88 390.07 50.37Z" id="afSl6pO9U"></path><path d="M453.49 50.14C458.03 49.9 462.54 49.23 467.08 48.86C473.88 48.31 480.69 47.9 487.53 48.23C495.23 48.6 502.93 48.9 510.63 49.29C513.47 49.43 516.3 49.73 519.13 49.96C522.48 50.22 525.84 50.4 529.18 50.77C533.44 51.24 537.69 51.86 541.94 52.4C545.07 52.8 548.19 53.28 551.33 53.55C557.52 54.08 563.62 55.22 569.67 56.57C576.88 58.17 584.08 59.83 591.24 61.67C595.38 62.74 599.44 64.16 603.5 65.52C606.04 66.37 606.31 66.84 606.77 69.88C605.33 70.52 603.88 71.35 602.33 71.81C597.47 73.24 592.62 74.72 587.69 75.83C579.83 77.6 571.93 79.18 564.01 80.66C559.44 81.52 554.82 82.08 550.21 82.71C545.81 83.31 541.4 83.86 536.99 84.39C535.29 84.6 533.59 84.84 531.89 84.81C527.78 84.75 523.76 85.44 519.7 85.93C516.17 86.36 512.62 86.71 509.07 87.07C505.11 87.46 501.15 87.84 497.18 88.2C494.2 88.47 491.2 88.63 488.22 88.97C484.32 89.4 480.43 89.95 476.53 90.46C476.34 90.49 476.14 90.56 475.94 90.62C475.71 91.23 475.74 91.69 476.47 91.76C482.41 92.37 487.85 94.73 493.47 96.47C498.17 97.91 502.91 99.04 507.81 99.72C511.42 100.21 514.94 101.39 518.48 102.33C526.57 104.48 534.61 106.81 542.74 108.79C551.03 110.82 559.12 113.49 567.31 115.86C571.58 117.09 575.79 118.51 580.04 119.81C581.22 120.18 582.43 120.46 583.63 120.75C590.47 122.37 597.31 123.98 604.15 125.58C608.02 126.49 611.9 127.36 615.78 128.23C618.02 128.72 620.29 128.84 622.57 128.7C626.64 128.43 630.62 128.82 634.47 130.28C634.8 130.41 635.19 130.48 635.46 130.69C635.79 130.96 636.17 131.31 636.28 131.7C636.43 132.25 635.92 132.54 635.47 132.66C634.53 132.93 633.58 133.2 632.62 133.32C627.81 133.9 623.03 133.69 618.24 132.97C615.33 132.53 612.38 132.37 609.47 131.92C602.73 130.87 596.06 129.48 589.48 127.66C577.88 124.44 566.25 121.33 554.66 118.08C551.74 117.25 548.93 116 546.06 115C538.88 112.49 531.57 110.45 524.16 108.74C518.48 107.42 512.82 106 507.14 104.66C506.21 104.44 505.23 104.4 504.28 104.27C504.24 104.4 504.19 104.52 504.15 104.64C504.52 104.81 504.87 105.04 505.26 105.14C508.2 105.92 511.17 106.62 514.1 107.46C518.07 108.61 521.99 109.94 525.97 111.05C531.74 112.65 537.56 114.09 543.33 115.69C545.17 116.2 546.94 116.94 548.72 117.64C550.07 118.17 550.05 118.22 549.92 119.95C548.26 119.97 546.65 119.59 545.09 119.17C538.2 117.33 531.31 115.5 524.47 113.49C514.01 110.41 503.4 107.93 492.8 105.4C489.28 104.56 485.82 103.47 482.31 102.65C476.73 101.34 471.11 100.16 465.52 98.93C461.68 98.08 457.84 97.27 454.03 96.36C452.6 96.02 451.22 95.46 449.86 94.84C452.41 94.17 454.81 95.06 457.36 95.45C457.77 94.82 458.17 94.2 458.74 93.32C456.89 93.11 455.33 92.85 453.75 92.77C449.67 92.55 445.59 92.47 441.51 92.88C439.33 93.1 437.4 93.89 435.64 95.12C434.71 95.77 433.84 96.5 432.98 97.25C428.23 101.35 423.92 105.88 419.9 110.69C419.21 111.52 418.61 112.44 417.93 113.28C416.83 114.65 415.5 115.38 413.61 115.11C412.42 114.94 411.16 115.22 409.92 115.24C409.5 115.25 408.99 115.16 408.66 114.93C407.7 114.24 406.81 113.45 405.73 112.57C406.8 110.79 407.85 109.05 408.9 107.3C408.84 107.23 408.79 107.17 408.73 107.1C408.44 107.22 408.1 107.28 407.86 107.47C406.45 108.59 405 109.68 403.68 110.91C401.6 112.85 399.61 114.88 397.56 116.86C397.12 117.29 396.61 117.64 396.09 118.06C395.87 117.91 395.69 117.82 395.55 117.68C393.77 115.89 393.66 115.09 395.03 112.94C395.48 112.25 396 111.6 396.55 110.98C398.39 108.88 400.23 106.77 402.14 104.74C402.98 103.84 403.99 103.1 404.93 102.31C405.8 101.58 406.8 100.96 407.54 100.13C410.42 96.92 413.75 94.2 416.9 91.29C422.55 86.04 428.21 80.82 433.84 75.55C439.62 70.15 445.37 64.72 451.13 59.29C451.83 58.63 452.48 57.92 453.37 57.01C452.15 57.01 451.25 57 450.36 57.02C449.95 57.03 449.54 57.12 449.13 57.17C445.7 57.57 444.48 56.92 442.77 53.74C446.11 51.86 449.52 50.34 453.49 50.14ZM575.94 68.51C574.98 68.17 574.03 67.75 573.05 67.49C569.4 66.54 565.75 65.59 562.08 64.76C559.26 64.12 556.4 63.68 553.56 63.15C549.65 62.42 545.75 61.62 541.83 60.95C538.68 60.42 535.49 60.09 532.33 59.57C527.23 58.72 522.13 57.98 516.93 57.91C514.16 57.87 511.37 57.5 508.61 57.12C503.38 56.39 498.16 55.76 492.87 55.75C489.2 55.74 485.53 55.84 481.86 55.75C480.05 55.71 478.67 56.33 477.45 57.59C475.94 59.15 474.42 60.71 472.81 62.16C469.4 65.24 465.88 68.21 462.48 71.3C458.22 75.16 454.04 79.08 449.83 82.98C449.39 83.39 449 83.85 448.39 84.5C449.36 84.84 450.05 85.23 450.78 85.31C452.16 85.48 453.57 85.63 454.95 85.51C460.61 85.03 466.27 84.46 471.92 83.89C475.31 83.55 478.69 83.1 482.08 82.75C486.09 82.34 490.11 82.01 494.11 81.59C496.94 81.3 499.75 80.87 502.58 80.61C506.39 80.27 510.21 80.07 514.02 79.74C518.19 79.38 522.35 78.94 526.55 78.97C528.34 78.99 530.14 78.68 531.93 78.42C535.76 77.86 539.57 77.14 543.41 76.66C549.62 75.89 555.8 75 561.81 73.18C566.01 71.91 570.24 70.76 574.46 69.53C574.97 69.38 575.47 69.15 575.98 68.96C575.97 68.81 575.96 68.66 575.94 68.51Z" id="a28ePVwRFf"></path><path d="M589.19 154.11C587.17 154.02 586.92 153.78 586.59 151.79C586.15 149.16 586.38 146.53 586.72 143.91C586.85 142.91 587.23 142.59 588.22 142.43C588.73 142.34 589.24 142.22 589.75 142.22C593.16 142.26 596.57 142.28 599.97 142.41C601.45 142.47 601.74 142.85 601.9 144.31C602.19 146.93 602.42 149.56 601.9 152.19C601.61 153.66 601.4 153.96 599.89 154.05C598.04 154.15 596.17 154.07 594.31 154.07C594.31 154.09 594.31 154.11 594.31 154.12C592.6 154.12 590.9 154.18 589.19 154.11ZM589.35 151.89C592.67 151.89 596 151.89 599.4 151.89C599.4 149.29 599.4 146.8 599.4 144.23C595.96 144.23 592.62 144.23 589.2 144.23C588.9 146.52 589 150.82 589.35 151.89Z" id="cEAAQCyxx"></path><path d="M482.13 142.17C483.57 142.17 484.95 142.16 486.33 142.17C487.67 142.19 489.01 142.19 490.35 142.27C491.17 142.33 491.99 142.49 492.79 142.68C494.56 143.08 495.66 144.25 496.24 145.92C496.89 147.84 496.65 149.7 495.63 151.44C494.83 152.79 493.68 153.75 492.05 153.84C488.81 154.02 485.56 154.13 482.13 154.27C482.13 150.09 482.13 146.24 482.13 142.17ZM484.77 151.24C484.77 151.43 484.85 151.63 484.93 151.96C487.1 151.96 489.25 152.25 491.37 151.63C493.12 151.11 493.89 150.05 493.91 148.21C493.92 146.1 493.23 145.04 491.36 144.5C489.25 143.89 487.1 144.12 484.76 144.22C484.76 146.71 484.76 148.97 484.77 151.24Z" id="aiv3c7EQr"></path><path d="M425.52 142.23C425.52 145.48 425.52 148.65 425.52 151.91C428.32 151.91 430.92 151.91 433.68 151.91C433.68 148.69 433.68 145.56 433.68 142.27C434.62 142.22 435.41 142.18 436.29 142.13C436.34 142.54 436.4 142.84 436.4 143.13C436.4 145.97 436.4 148.81 436.36 151.66C436.33 153.38 435.64 154.09 433.88 154.12C430.99 154.16 428.09 154.15 425.2 154.08C423.51 154.04 422.85 153.36 422.82 151.71C422.78 148.87 422.78 146.03 422.78 143.19C422.78 142.85 422.89 142.51 422.94 142.23C423.81 142.23 424.57 142.23 425.52 142.23Z" id="aGWFf6Hpn"></path><path d="M364.17 154.08C364.43 153.54 364.61 153.08 364.85 152.66C366.65 149.46 368.44 146.26 370.26 143.07C371.02 141.73 372.93 141.65 373.72 142.98C375.76 146.4 377.73 149.85 379.72 153.3C379.84 153.51 379.88 153.76 379.99 154.08C379.02 154.08 378.15 154.08 377.3 154.08C377.17 153.86 377.05 153.7 376.96 153.51C375.79 151.04 376.43 151.44 373.53 151.38C371.67 151.34 369.82 151.37 368.02 151.37C367.5 152.34 367.04 153.2 366.57 154.08C365.82 154.08 365.11 154.08 364.17 154.08ZM369.49 149.33C371.46 149.62 373.46 149.53 374.51 149.05C373.71 147.59 372.91 146.13 372.08 144.63C370.81 145.91 369.57 148.22 369.49 149.33Z" id="a38JUKNoG"></path><path d="M541.2 142.2C541.2 146.14 541.2 150.03 541.2 154.03C540.44 154.03 539.7 154.03 538.95 154.03C538.6 152.97 538.53 143.88 538.88 142.2C539.61 142.2 540.36 142.2 541.2 142.2Z" id="b3uJs0Zk0J"></path></defs><g><g><g><use xlink:href="#afSl6pO9U" opacity="1" fill="#000000" fill-opacity="1"></use><g><use xlink:href="#afSl6pO9U" opacity="1" fill-opacity="0" stroke="#000000" stroke-width="1" stroke-opacity="0"></use></g></g><g><use xlink:href="#a28ePVwRFf" opacity="1" fill="#000000" fill-opacity="1"></use><g><use xlink:href="#a28ePVwRFf" opacity="1" fill-opacity="0" stroke="#000000" stroke-width="1" stroke-opacity="0"></use></g></g><g><use xlink:href="#cEAAQCyxx" opacity="1" fill="#000000" fill-opacity="1"></use><g><use xlink:href="#cEAAQCyxx" opacity="1" fill-opacity="0" stroke="#000000" stroke-width="1" stroke-opacity="0"></use></g></g><g><use xlink:href="#aiv3c7EQr" opacity="1" fill="#000000" fill-opacity="1"></use><g><use xlink:href="#aiv3c7EQr" opacity="1" fill-opacity="0" stroke="#000000" stroke-width="1" stroke-opacity="0"></use></g></g><g><use xlink:href="#aGWFf6Hpn" opacity="1" fill="#000000" fill-opacity="1"></use><g><use xlink:href="#aGWFf6Hpn" opacity="1" fill-opacity="0" stroke="#000000" stroke-width="1" stroke-opacity="0"></use></g></g><g><use xlink:href="#a38JUKNoG" opacity="1" fill="#000000" fill-opacity="1"></use><g><use xlink:href="#a38JUKNoG" opacity="1" fill-opacity="0" stroke="#000000" stroke-width="1" stroke-opacity="0"></use></g></g><g><use xlink:href="#b3uJs0Zk0J" opacity="1" fill="#000000" fill-opacity="1"></use><g><use xlink:href="#b3uJs0Zk0J" opacity="1" fill-opacity="0" stroke="#000000" stroke-width="1" stroke-opacity="0"></use></g></g></g></g></svg>