<?xml version="1.0" encoding="utf-8"?>
<!-- Generator: Adobe Illustrator 23.0.2, SVG Export Plug-In . SVG Version: 6.00 Build 0)  -->
<svg version="1.1" id="Layer_1" xmlns="http://www.w3.org/2000/svg" xmlns:xlink="http://www.w3.org/1999/xlink" x="0px" y="0px"
	 viewBox="0 0 4123.14 1309.67" style="enable-background:new 0 0 4123.14 1309.67;" xml:space="preserve">
<style type="text/css">
	.st0{fill:#FFFFFF;}
</style>
<path d="M2753.97,57.22c-6.25,9.01-12.82,17.82-18.67,27.08c-6.92,10.97-13.32,22.27-19.73,33.56c-1.77,3.12-2.78,6.68-4.77,11.6
	c3.44-0.76,5.6-0.85,7.38-1.7c12.82-6.14,23.27-15.43,33.03-25.53c6.02-6.23,11.8-12.69,17.73-19
	c13.43-14.29,18.99-17.47,40.5-22.95c-1.5,9.37-7.2,15.86-13.23,21.68c-14.73,14.23-26.62,30.7-38.41,47.25
	c-15.47,21.7-30.2,43.95-46.07,65.36c-29.55,39.86-58.26,80.47-90.02,118.5c-25.72,30.79-48.75,63.27-71.74,95.95
	c-7.65,10.88-16.64,20.8-24.52,31.53c-11.82,16.11-23,32.69-34.85,48.78c-7.1,9.64-14.96,18.72-22.42,28.09
	c-3.94,4.95-8.38,9.63-11.52,15.05c-14.76,25.45-33.24,48.27-50.11,72.23c-17.84,25.33-34.73,51.33-52.45,76.75
	c-16.38,23.5-33.48,46.5-49.92,69.96c-9.55,13.63-18.44,27.73-27.6,41.63c-2.2,3.34-4.19,6.82-6.44,10.12
	c-22.51,33.03-45.2,65.94-67.51,99.11c-7.05,10.48-13.67,21.33-19.58,32.49c-17.67,33.36-38.11,64.87-60.98,94.9
	c-11.7,15.36-22.13,31.69-33.49,47.32c-4.88,6.71-5.62,13.34-1.99,20.55c2.54,5.05,5.24,10.03,8.03,14.95
	c6.59,11.59,12.66,23.37,15.24,37.29c-10.46,3.72-21.38,5.77-31.31,2.95c-9.84-2.8-18.57-9.54-27.75-14.54
	c-5.18,7.43-2.85,13.98,1.32,21.2c-2.57-1.6-5.14-3.21-8.63-5.39c-2.33,2.96-4.73,5.58-6.65,8.53
	c-17.63,27.08-35.18,54.22-52.76,81.34c-6.16,9.51-11.93,19.3-18.62,28.42c-5.47,7.46-11.57,14.62-18.3,20.94
	c-5.1,4.79-8.96,3-12.89-2.58c-7.35-10.42-6.71-21.87-5.49-32.93c2.2-2.36,4.82-4.08,5.89-6.49c14.24-32.24,34.84-60.56,54.47-89.52
	c11.02-16.26,21.09-33.16,31.8-49.63c3.97-6.11,3.47-11.86,2.1-18.86c-2.6-13.33-11.97-21.59-20.48-32.98
	c-1.7,6.71,1.49,10.82,2.65,15.19c1.26,4.73,2.86,9.38,3.09,14.73c-1.57-1.9-3.28-3.71-4.7-5.72c-12.57-17.71-23.21-36.5-32.38-56.2
	c-15.03-32.31-29.66-64.85-45.93-96.53c-37.45-72.89-75-145.75-113.98-217.82c-39.19-72.46-89.54-137.15-143.85-198.83
	c-1.88-2.13-4.05-4-6.49-6.38c-2.96,5.98-0.18,9.63,2.54,13.43c16.28,22.76,32.58,45.53,48.7,68.4c6.5,9.21,12.59,18.71,19.07,28.38
	c-6.7,7.2-4.18,14.2-0.9,21.45c2.46,5.44,4.68,11.07,6.18,16.83c0.88,3.37,1.15,7.58-0.11,10.67c-2.07,5.07-0.77,8.85,1.69,13.09
	c26.4,45.54,52.6,91.19,79.06,136.69c23.63,40.62,46.23,81.79,66.2,124.35c5.96,12.69,10.35,25.85,11.73,40.36
	c-2.48,0.59-4.71,1.1-6.92,1.66c-7.35,1.87-13.05-0.26-17.15-6.76c-7.82-12.39-16.01-24.56-23.56-37.11
	c-31.26-51.95-62.3-104.03-93.5-156.02c-26.57-44.27-52.72-88.81-80.1-132.58c-11.98-19.15-25.74-37.35-40.17-54.75
	c-18.79-22.67-35.08-46.93-50.64-71.79c-6.37-10.16-12.98-20.18-18.99-30.55c-3.25-5.6-7.62-7.47-13.27-5.44
	c-6.83,2.46-14.27,4.53-19.87,8.83c-26.39,20.24-54.32,38.57-76.92,63.55c-14.52,16.04-30.68,30.58-45.47,46.39
	c-15.7,16.79-30.61,34.3-45.91,51.45c-3.99,4.47-8.34,8.63-12.26,13.17c-10.75,12.47-23.17,21.67-40.35,23.2
	c-4.47,0.4-9.1,2.44-13.03,4.78c-8.03,4.77-15.62,4.14-22.13-1.76c-6.38-5.78-12.82-5.6-20.29-3.4
	c-15.26,4.49-28.59,12.52-41.49,21.5c-7.85,5.46-15.12,12.16-25.59,13.26c-5.1-5.07-5.7-11.89-6.54-18.29
	c-0.32-2.39,1.74-5.79,3.73-7.65c5.34-4.98,10.74-10.21,16.99-13.85c27.56-16.04,51.72-36.23,74.93-57.95
	c18.72-17.51,38.82-33.54,58.09-50.47c8.69-7.64,17.01-15.75,24.37-27.15c-15.26-0.45-29.32-1.78-42.32,3.89
	c-41.27,18.01-84.98,26.05-128.81,34.79c-36.44,7.27-73.18,10.08-109.88,13.84c-50.34,5.15-100.74,10.06-151.24,13.14
	c-48.87,2.98-97.89,3.39-146.84,5.14c-42.61,1.53-85.15,3.91-127.54,8.9c-29.75,3.51-59.67,5.6-89.49,8.58
	c-33.79,3.37-67.58,6.76-101.29,10.76c-6.39,0.76-12.71,3.85-18.56,6.86c-7.58,3.91-15.35,6.4-23.84,6.44
	c-16.33,0.08-32.66-0.24-48.98,0.12c-44.63,0.97-89.26,2.34-133.89,3.28c-45.64,0.96-91.28,2.09-136.92,2.08
	c-14.17,0-28.41-3.04-42.47-5.52c-8.59-1.51-16.22-5.83-22.81-11.8c-3.24-2.93-5.16-6.06-3.31-11.47
	c26.34-4.06,53.57-6.54,80.48-15.2c0-5.2,0-10.41,0-15.88c11.34-5.17,22.67-7.67,34.14-9.01c14.54-1.69,29.21-2.34,43.8-3.62
	c26.21-2.3,52.41-4.83,78.62-7.09c21.9-1.89,43.83-3.46,65.73-5.3c30.86-2.6,61.73-5.09,92.55-8.08
	c18.88-1.83,37.62-5.42,56.52-6.61c37.88-2.4,75.83-3.84,113.76-5.33c6.25-0.25,12.59,1.13,18.85,2.01
	c19.76,2.76,39.24-0.88,58.75-2.8c35.81-3.52,71.59-6.85,107.64-7.38c25.27-0.37,50.52-2.9,75.77-4.56
	c14.29-0.94,28.56-2.32,42.86-3.1c52.89-2.91,105.8-5.38,158.67-8.54c35.91-2.14,71.76-5.16,107.64-7.78
	c26.58-1.94,53.18-3.7,79.74-5.93c7.54-0.63,14.96-2.64,23.83-4.27c-2.22-2.94-3.3-4.88-4.85-6.33
	c-14.03-13.18-30.55-22.45-48.04-30.08c-38.22-16.68-77.63-30.02-117.95-40.52c-50.24-13.08-100.33-27.03-151.07-37.81
	c-72.68-15.44-144.01-35.9-215.5-55.66c-29.38-8.12-57.41-21.18-86.03-32.04c-10.43-3.96-17.96-11.38-23.4-20.87
	c-3.96-6.91-7.37-14.15-10.99-21.18c4.09-5.38,9.59-6.42,15.2-7.51c16.65-3.23,33.28-6.59,49.9-9.96c6.08-1.23,11.05-3.85,14.2-9.78
	c3.31-6.23,8.85-9.31,16.05-10.44c20.38-3.2,40.72-6.73,60.99-10.58c26.8-5.1,53.44-11.01,80.28-15.89
	c31.43-5.71,62.9-11.29,94.52-15.76c20.08-2.84,40.48-3.36,60.69-5.33c19.21-1.87,38.35-4.41,57.55-6.42
	c25.17-2.64,50.32-5.65,75.55-7.44c66.91-4.73,133.94-1.73,200.91-1.63c18.54,0.03,37.2,2.81,55.54,5.91
	c9.27,1.57,17.98,6.59,26.88,10.22c4.32,1.76,5.21,5.58,5.35,9.83c0.16,4.86-3.59,5.86-6.85,7.42c-8.38,4-17.39,4.03-26.41,4.29
	c-12.3,0.36-24.59,1.17-36.88,1.39c-13.61,0.25-27.23,0.06-41.24,0.06c-2.64,6.7-5.1,12.81-7.45,18.97
	c-2.95,7.74-8.28,11.81-16.79,11.33c-5.32-0.3-10.76,0.17-15.95-0.79c-36.29-6.71-72.96-7.26-109.56-5.4
	c-43.9,2.22-87.76,5.67-131.57,9.47c-40.8,3.54-81.55,7.74-122.21,12.6c-27.03,3.23-53.87,8.13-80.56,12.25
	c-1.6,6.15,1.77,8.41,5.5,10.02c10.99,4.75,21.9,9.79,33.16,13.79c27.63,9.8,55.89,17.17,84.63,23.25
	c29.91,6.33,59.27,15.23,88.91,22.84c59.96,15.4,120.28,29.48,179.8,46.41c44.13,12.55,87.44,28.15,130.72,43.5
	c29.05,10.3,55.76,25.36,79.1,45.88c1.21,1.07,2.72,1.8,5.02,3.29c8.55-7.91,16.9-15.95,25.58-23.6
	c11.23-9.9,22.83-19.38,34.09-29.25c22.54-19.77,45.72-38.98,59.48-66.63c3.63-7.3,9.02-12.64,16.34-16.84
	c13.3-7.61,23.34-18.85,29.77-32.83c3.9-8.47,9.28-15.39,17.19-20.22c8.3-5.07,13.24-12.67,17.76-21.04
	c3.58-6.64,7.86-13.35,13.31-18.44c42.16-39.45,81.98-81,117.5-126.64c11.26-14.47,6.44-11.4,25.01-10.79
	c8.29,0.27,16.58,1.55,24.79,2.89c6.29,1.03,11.92,0.87,16.34-4.43c0.21-0.25,0.51-0.43,0.74-0.67
	c19.69-20.38,44.69-29.44,71.93-33.61c11.95-1.83,23.9-2.44,35.48,2.14c1.47,0.58,2.77,1.58,4.74,2.73
	c-7.21,13.8-16.25,25.73-26.71,36.34c-31.13,31.54-62.75,62.59-94.12,93.9c-15.56,15.52-31,31.16-46.48,46.77
	c-5.63,5.67-11.12,11.48-16.8,17.09c-24.91,24.55-49.98,48.94-74.73,73.66c-6.52,6.51-12.05,14.01-18.58,21.69
	c9.9,6.22,19.55,6.08,28.8,3.73c9.28-2.35,18.42-5.84,27.06-9.99c26.42-12.69,52.11-26.99,78.94-38.67
	c29.64-12.9,59.34-25.49,87.52-41.43c4.61-2.61,9.62-4.61,14.6-6.49c48.97-18.44,96.15-41.04,143.95-62.2
	c5.17-2.29,10.41-4.56,15.26-7.45c22.87-13.64,47.82-21.51,73.49-27.91c13.82-3.44,27.06-9.15,40.66-13.52
	c8.83-2.83,17.77-5.39,26.8-7.51c13.28-3.12,26.67-5.75,40.03-8.55c10.96-2.3,21.88-2.37,32.51,1.46
	c8.68,3.12,15.88,8.2,20.19,17.37c-8.8,8.14-18.69,13.75-29.9,17.4c-24.06,7.83-48.11,15.67-71.99,24.03
	c-9.38,3.28-18.5,7.48-27.34,12.04c-31.71,16.36-64.09,31.22-97.61,43.42c-22.31,8.12-43.39,18.69-64.58,29.2
	c-22.97,11.4-46.22,22.21-69.37,33.24c-2.7,1.29-5.44,2.68-8.32,3.37c-22.03,5.3-41.13,17.07-60.68,27.71
	c-27.32,14.88-55.77,26.81-85.69,35.36c-13.77,3.94-27.45,8.26-39.57,16.29c-8.11,5.37-8.79,7.91-3.71,16.16
	c2.08,3.39,4.85,6.34,7.21,9.57c17.32,23.65,34.66,47.27,51.89,70.98c11.77,16.2,24.38,31.6,38.41,45.98
	c7.34,7.52,12.87,16.89,18.66,25.79c4.9,7.53,8.76,15.71,13.5,23.36c5.64,9.1,12.2,17.48,22.69,24.11
	c8.93-4.31,18.62-8.57,27.92-13.56c21.81-11.69,41.46-26.6,61.14-41.49c4.7-3.56,5.63-7.95,5.64-13.04
	c0.01-4.46,1.35-7.57,6.08-8.98c25.27-7.52,46.64-22.58,68.76-36.09c27.7-16.92,51.81-38.41,76.23-59.67
	c34.41-29.96,70.58-57.9,105.11-87.72c47.68-41.18,93.72-84.14,136.62-130.38c11.31-12.19,23.87-23.23,35.88-34.79
	c11.99-11.55,24.04-23.04,36-34.62c5.27-5.1,10.6-10.16,15.49-15.61c6.46-7.2,13.43-9.6,22.96-5.93c6.08,2.34,12.94,3.48,19.49,3.62
	c12.13,0.26,21.51-4.61,27.76-15.94c4.28-7.76,10.55-14.42,16.02-21.51c4.55-5.9,10.14-7.56,17.58-5.45
	c6.95,1.97,14.29,2.57,21.58,3.8c4.3-6.4,8.17-12.16,12.51-18.63c10.17,2.66,20.35,5.31,30.84,8.05c1.6-2.63,3.04-4.8,4.29-7.08
	c8.24-15.06,21.81-22.19,38.7-20.2c6.28,0.74,12.55,1.62,18.82,2.47c13.29,1.81,25.22-1.39,35.36-10.15
	c5.53-4.78,10.49-10.21,15.71-15.35C2751.31,57.22,2752.64,57.22,2753.97,57.22z M2056.32,1021.13
	c9.84-6.22,15.88-14.21,20.34-23.06c12.04-23.9,27.82-45.38,42.44-67.63c20.28-30.88,39.85-62.25,60.61-92.8
	c22.26-32.78,45.6-64.83,68.38-97.25c14.74-20.98,29.35-42.05,43.99-63.1c4.78-6.88,7.24-14.29,5.61-24.85
	c-10.97,11.79-14.99,26.75-28.18,34.01c5.26-13.13,11.25-25.72,18.07-37.84c10.4-18.47,16.92-38.31,22.07-58.69
	c0.54-2.13,0.37-4.43,0.62-7.93c-6.86,1.6-12.82,2.99-18.58,4.33c-8.02-10.97-8.03-11.42-22.28-11.09
	c-21.97,0.5-43.92,1.56-65.87,2.63c-12.96,0.63-25.96,1.23-38.83,2.76c-16.51,1.97-32.86,5.28-49.37,7.23
	c-15.94,1.88-30.19,7.77-43.63,16.09c-11.89,7.36-23.55,15.09-35.6,22.16c-21.24,12.45-42.57,24.76-64.15,36.6
	c-5.7,3.13-12.47,4.28-18.72,6.43c-4.7,1.62-9.69,2.79-13.94,5.22c-10.73,6.14-11.41,10.73-3.87,20.14c1.46,1.82,3.19,3.5,4.25,5.53
	c0.94,1.81,1.13,4.01,1.69,6.19c-10.14,2.14-19.39,4.09-29.49,6.22c1.8,4.8,2.84,8.27,4.36,11.53
	c17.97,38.62,35.99,77.21,54.05,115.79c1.13,2.4,2.72,4.58,3.95,6.94c10.16,19.46,21.13,38.55,30.24,58.49
	c15.07,32.98,28.88,66.53,43.36,99.78C2050.2,1010.31,2053.28,1015.36,2056.32,1021.13z M2535.13,220.83
	c-6.81,0.29-11.76,2.47-15.77,5.67c-8.03,6.4-15.83,13.18-23.12,20.42c-7.31,7.26-13.41,15.77-20.87,22.86
	c-42.52,40.38-85.04,80.76-128.08,120.57c-17.34,16.04-36.07,30.57-54.04,45.94c-28.34,24.24-55.19,50.24-85.92,71.64
	c-13.66,9.51-26.87,19.69-40.22,29.65c-2.77,2.07-5.24,4.52-9.02,7.82c3.39,0.97,4.86,1.69,6.38,1.79
	c11.97,0.75,23.97,2.3,35.91,1.88c39.27-1.37,78.5-4.12,117.78-4.89c12.4-0.24,19.19-4.98,25.51-14.67
	c22.01-33.75,44.77-67.02,67.07-100.58c14.19-21.35,28.85-42.45,41.92-64.48c26.68-44.97,52.43-90.48,78.54-135.78
	C2532.44,226.51,2533.44,224.21,2535.13,220.83z"/>
<path d="M2858.87,248.22c21.54-12.16,43.5-21.92,69.07-23.24c29.24-1.5,58.32-5.84,87.52-8.21c43.85-3.56,87.74-6.21,131.79-4.08
	c49.59,2.4,99.2,4.35,148.79,6.85c18.29,0.92,36.53,2.84,54.79,4.28c21.58,1.71,43.23,2.89,64.74,5.25
	c27.45,3.01,54.8,6.99,82.2,10.49c20.14,2.57,40.25,5.67,60.47,7.42c39.92,3.44,79.19,10.77,118.19,19.44
	c46.45,10.32,92.84,21.02,138.92,32.88c26.71,6.88,52.86,16.03,79.04,24.8c16.33,5.47,18.08,8.51,21.04,28.11
	c-9.27,4.09-18.6,9.43-28.63,12.39c-31.26,9.23-62.51,18.79-94.27,25.94c-50.63,11.4-101.57,21.53-152.59,31.11
	c-29.42,5.52-59.21,9.1-88.89,13.17c-28.36,3.89-56.78,7.41-85.2,10.84c-10.9,1.32-21.9,2.89-32.83,2.73
	c-26.47-0.39-52.4,4.06-78.5,7.22c-22.8,2.75-45.67,5-68.53,7.29c-25.51,2.55-51.03,4.97-76.57,7.28
	c-19.24,1.75-38.55,2.82-57.74,4.96c-25.14,2.81-50.19,6.37-75.28,9.64c-1.28,0.17-2.51,0.65-3.85,1c-1.49,3.94-1.29,6.91,3.46,7.39
	c38.23,3.87,73.3,19.12,109.5,30.29c30.26,9.33,60.84,16.58,92.36,20.93c23.25,3.21,45.94,10.78,68.76,16.84
	c52.11,13.83,103.92,28.85,156.28,41.64c53.41,13.05,105.56,30.25,158.3,45.51c27.49,7.95,54.64,17.08,82,25.5
	c7.62,2.34,15.41,4.17,23.17,6c44.04,10.43,88.08,20.86,132.16,31.15c24.95,5.83,49.95,11.48,74.96,17.04
	c14.4,3.2,29.02,3.98,43.72,3.02c26.23-1.72,51.89,0.83,76.64,10.2c2.18,0.82,4.67,1.28,6.4,2.67c2.16,1.73,4.56,4,5.26,6.49
	c1,3.53-2.28,5.41-5.18,6.21c-6.05,1.69-12.17,3.46-18.38,4.22c-30.96,3.75-61.79,2.37-92.61-2.26
	c-18.76-2.82-37.78-3.86-56.52-6.77c-43.43-6.74-86.41-15.69-128.81-27.46c-74.71-20.74-149.63-40.72-224.28-61.71
	c-18.85-5.3-36.92-13.36-55.45-19.84c-46.23-16.16-93.33-29.27-141.04-40.33c-36.62-8.49-73.08-17.64-109.67-26.27
	c-6.01-1.42-12.29-1.7-18.45-2.5c-0.27,0.8-0.54,1.6-0.81,2.4c2.37,1.09,4.64,2.54,7.12,3.2c18.97,5.04,38.11,9.53,56.97,14.97
	c25.58,7.37,50.82,15.94,76.46,23.08c37.19,10.35,74.67,19.62,111.88,29.9c11.83,3.27,23.26,8.06,34.71,12.58
	c8.67,3.42,8.55,3.72,7.71,14.88c-10.66,0.14-21.03-2.31-31.14-5.02c-44.35-11.89-88.75-23.66-132.8-36.6
	c-67.42-19.81-135.77-35.79-204.07-52.1c-22.65-5.41-44.91-12.44-67.57-17.75c-35.95-8.42-72.11-16-108.17-23.96
	c-24.69-5.45-49.43-10.71-74.02-16.55c-9.21-2.19-18.08-5.79-26.85-9.81c16.46-4.3,31.92,1.42,48.35,3.97
	c2.61-4.06,5.22-8.1,8.84-13.72c-11.87-1.37-21.96-3.04-32.1-3.59c-26.29-1.42-52.58-1.9-78.88,0.72
	c-14.06,1.4-26.45,6.5-37.79,14.43c-5.99,4.19-11.62,8.93-17.16,13.71c-30.58,26.43-58.35,55.61-84.26,86.59
	c-4.48,5.36-8.3,11.27-12.69,16.71c-7.12,8.82-15.64,13.56-27.82,11.81c-7.72-1.11-15.83,0.72-23.77,0.82
	c-2.74,0.03-6.01-0.49-8.13-2.02c-6.19-4.44-11.93-9.52-18.89-15.21c6.88-11.42,13.64-22.67,20.41-33.91
	c-0.35-0.44-0.71-0.87-1.06-1.31c-1.88,0.76-4.07,1.14-5.6,2.36c-9.1,7.26-18.43,14.29-26.95,22.2
	c-13.43,12.46-26.23,25.6-39.41,38.33c-2.84,2.74-6.15,5-9.51,7.7c-1.41-0.97-2.58-1.53-3.45-2.4
	c-11.5-11.55-12.16-16.69-3.34-30.56c2.85-4.47,6.25-8.64,9.76-12.63c11.88-13.51,23.69-27.09,35.99-40.2
	c5.42-5.78,11.93-10.54,18.03-15.67c5.59-4.71,12-8.66,16.82-14.04c18.5-20.7,40-38.16,60.26-56.96
	c36.4-33.77,72.86-67.46,109.13-101.35c37.25-34.81,74.32-69.8,111.42-104.77c4.5-4.24,8.68-8.83,14.42-14.7
	c-7.88,0-13.65-0.1-19.42,0.05c-2.65,0.07-5.28,0.65-7.93,0.97C2877.77,272.87,2869.9,268.66,2858.87,248.22z M3717.09,346.27
	c-0.09-0.97-0.18-1.93-0.27-2.9c-6.21-2.23-12.29-4.94-18.65-6.59c-23.5-6.1-46.99-12.26-70.67-17.59
	c-18.16-4.09-36.6-6.93-54.9-10.37c-25.17-4.73-50.27-9.84-75.52-14.14c-20.33-3.46-40.88-5.59-61.23-8.95
	c-32.87-5.42-65.72-10.2-99.18-10.67c-17.9-0.25-35.85-2.62-53.62-5.1c-33.67-4.7-67.36-8.72-101.41-8.82
	c-23.65-0.07-47.32,0.57-70.96,0c-11.66-0.28-20.52,3.73-28.38,11.86c-9.72,10.05-19.52,20.08-29.89,29.44
	c-22,19.85-44.63,39.01-66.58,58.91c-27.39,24.83-54.38,50.11-81.49,75.24c-2.83,2.62-5.33,5.6-9.26,9.78
	c6.25,2.21,10.7,4.68,15.37,5.24c8.9,1.07,18.01,2.05,26.88,1.29c36.48-3.11,72.91-6.76,109.34-10.46
	c21.84-2.22,43.61-5.11,65.45-7.35c25.83-2.66,51.71-4.79,77.53-7.45c18.2-1.88,36.32-4.68,54.54-6.33
	c24.54-2.22,49.16-3.48,73.71-5.59c26.86-2.32,53.64-5.17,80.69-4.97c11.56,0.09,23.19-1.89,34.69-3.57
	c24.69-3.6,49.23-8.25,73.98-11.31c40.01-4.95,79.78-10.71,118.51-22.41c27.06-8.18,54.33-15.64,81.48-23.51
	C3710.59,348.97,3713.8,347.5,3717.09,346.27z"/>
<path d="M3835.17,894.91c-11,0-22.01,0.37-32.98-0.1c-13.03-0.55-14.67-2.11-16.79-14.94c-2.8-16.94-1.31-33.9,0.84-50.77
	c0.83-6.45,3.33-8.5,9.67-9.55c3.28-0.55,6.6-1.34,9.89-1.3c21.95,0.25,43.92,0.35,65.85,1.21c9.53,0.37,11.36,2.79,12.4,12.22
	c1.85,16.9,3.35,33.84,0,50.75c-1.89,9.51-3.24,11.41-12.92,11.98c-11.95,0.69-23.97,0.17-35.96,0.17
	C3835.17,894.68,3835.17,894.8,3835.17,894.91z M3802.22,831.19c-1.9,14.71-1.27,42.47,1.01,49.36c21.37,0,42.8,0,64.72,0
	c0-16.79,0-32.83,0-49.36C3845.76,831.19,3824.29,831.19,3802.22,831.19z"/>
<path d="M3112.45,895.87c0-26.96,0-51.78,0-77.98c9.3,0,18.18-0.07,27.06,0.02c8.64,0.09,17.29,0.09,25.91,0.65
	c5.27,0.34,10.54,1.42,15.71,2.61c11.39,2.62,18.49,10.11,22.19,20.89c4.25,12.4,2.67,24.37-3.93,35.54
	c-5.15,8.72-12.55,14.92-23.06,15.5C3155.46,894.26,3134.57,894.94,3112.45,895.87z M3129.41,831.13c0,16.01-0.02,30.61,0.04,45.21
	c0.01,1.24,0.55,2.48,1.06,4.65c13.96,0.01,27.82,1.87,41.46-2.15c11.3-3.33,16.27-10.19,16.35-22.01
	c0.09-13.62-4.37-20.45-16.39-23.92C3158.31,828.97,3144.45,830.44,3129.41,831.13z"/>
<path d="M2731.09,818.28c5.63,0,10.54,0,16.66,0c0,20.94,0,41.35,0,62.36c18,0,34.77,0,52.59,0c0-20.71,0-40.87,0-62.1
	c6.06-0.32,11.14-0.6,16.76-0.9c0.32,2.64,0.76,4.55,0.76,6.46c-0.04,18.3,0,36.61-0.29,54.91c-0.18,11.08-4.64,15.69-15.96,15.85
	c-18.63,0.26-37.28,0.19-55.91-0.23c-10.93-0.25-15.14-4.61-15.32-15.25c-0.31-18.3-0.29-36.61-0.29-54.91
	C2730.1,822.28,2730.79,820.1,2731.09,818.28z"/>
<path d="M2367.94,894.66c-4.81,0-9.41,0-15.45,0c1.68-3.52,2.86-6.45,4.4-9.18c11.56-20.61,23.15-41.21,34.82-61.77
	c4.92-8.67,17.21-9.19,22.33-0.58c13.1,22.02,25.8,44.28,38.61,66.48c0.78,1.35,1.07,2.99,1.77,5.03c-6.25,0-11.83,0-17.35,0
	c-0.83-1.41-1.6-2.49-2.16-3.68c-7.54-15.9-3.4-13.36-22.12-13.75c-11.96-0.25-23.92-0.05-35.48-0.05
	C2373.95,883.44,2370.99,888.97,2367.94,894.66z M2403.49,833.77c-8.19,8.25-16.18,23.08-16.72,30.24
	c12.71,1.89,25.58,1.31,32.35-1.8C2413.94,852.79,2408.81,843.44,2403.49,833.77z"/>
<path d="M3478.07,818.12c4.69,0,9.5,0,14.96,0c0,25.36,0,50.41,0,76.19c-4.91,0-9.71,0-14.55,0
	C3476.25,887.45,3475.82,828.92,3478.07,818.12z"/>
<path class="st0" d="M2056.32,1021.13c-3.04-5.76-6.12-10.81-8.47-16.19c-14.48-33.25-28.29-66.8-43.36-99.78
	c-9.11-19.94-20.08-39.03-30.24-58.49c-1.23-2.36-2.83-4.54-3.95-6.94c-18.06-38.58-36.08-77.17-54.05-115.79
	c-1.51-3.25-2.56-6.73-4.36-11.53c10.1-2.13,19.35-4.08,29.49-6.22c-0.56-2.18-0.74-4.38-1.69-6.19c-1.06-2.03-2.8-3.71-4.25-5.53
	c-7.54-9.41-6.86-14.01,3.87-20.14c4.25-2.43,9.24-3.6,13.94-5.22c6.25-2.15,13.02-3.31,18.72-6.43
	c21.58-11.84,42.91-24.15,64.15-36.6c12.05-7.07,23.72-14.8,35.6-22.16c13.44-8.32,27.68-14.21,43.63-16.09
	c16.51-1.95,32.86-5.26,49.37-7.23c12.87-1.53,25.87-2.13,38.83-2.76c21.95-1.07,43.9-2.12,65.87-2.63
	c14.25-0.33,14.26,0.12,22.28,11.09c5.76-1.34,11.73-2.74,18.58-4.33c-0.25,3.5-0.09,5.8-0.62,7.93
	c-5.16,20.38-11.67,40.22-22.07,58.69c-6.83,12.12-12.81,24.71-18.07,37.84c13.19-7.26,17.22-22.22,28.18-34.01
	c1.63,10.56-0.83,17.97-5.61,24.85c-14.64,21.05-29.25,42.12-43.99,63.1c-22.78,32.42-46.12,64.47-68.38,97.25
	c-20.76,30.56-40.32,61.92-60.61,92.8c-14.61,22.25-30.4,43.73-42.44,67.63C2072.2,1006.91,2066.16,1014.9,2056.32,1021.13z"/>
</svg>
